<svg width="20" height="21" viewBox="0 0 20 21" fill="none" xmlns="http://www.w3.org/2000/svg">
<path d="M6.26747 2.34427H6.07105C6.17908 2.34427 6.26747 2.25588 6.26747 2.14784V2.34427H13.7318V2.14784C13.7318 2.25588 13.8202 2.34427 13.9282 2.34427H13.7318V4.11213H15.4996V2.14784C15.4996 1.2811 14.7949 0.576416 13.9282 0.576416H6.07105C5.2043 0.576416 4.49962 1.2811 4.49962 2.14784V4.11213H6.26747V2.34427ZM18.6425 4.11213H1.35676C0.922161 4.11213 0.571045 4.46325 0.571045 4.89784V5.68356C0.571045 5.79159 0.659438 5.87999 0.767474 5.87999H2.25051L2.85698 18.7215C2.89627 19.5588 3.58868 20.2193 4.42596 20.2193H15.5733C16.413 20.2193 17.103 19.5612 17.1423 18.7215L17.7487 5.87999H19.2318C19.3398 5.87999 19.4282 5.79159 19.4282 5.68356V4.89784C19.4282 4.46325 19.0771 4.11213 18.6425 4.11213ZM15.3842 18.4514H4.61502L4.02082 5.87999H15.9784L15.3842 18.4514Z" fill="white"/>
</svg>
