<svg width="22" height="23" viewBox="0 0 22 23" fill="none" xmlns="http://www.w3.org/2000/svg">
<g clip-path="url(#clip0_0_3388)">
<rect width="22" height="22" transform="translate(0 0.400024)" fill="white" fill-opacity="0.01"/>
<path d="M7.26772 3.34421H7.07129C7.17933 3.34421 7.26772 3.25582 7.26772 3.14778V3.34421H14.732V3.14778C14.732 3.25582 14.8204 3.34421 14.9284 3.34421H14.732V5.11207H16.4999V3.14778C16.4999 2.28104 15.7952 1.57635 14.9284 1.57635H7.07129C6.20455 1.57635 5.49986 2.28104 5.49986 3.14778V5.11207H7.26772V3.34421ZM19.6427 5.11207H2.357C1.92241 5.11207 1.57129 5.46319 1.57129 5.89778V6.6835C1.57129 6.79153 1.65968 6.87993 1.76772 6.87993H3.25075L3.85723 19.7214C3.89651 20.5587 4.58892 21.2192 5.4262 21.2192H16.5735C17.4133 21.2192 18.1032 20.5612 18.1425 19.7214L18.749 6.87993H20.232C20.34 6.87993 20.4284 6.79153 20.4284 6.6835V5.89778C20.4284 5.46319 20.0773 5.11207 19.6427 5.11207ZM16.3845 19.4514H5.61526L5.02107 6.87993H16.9787L16.3845 19.4514Z" fill="white"/>
</g>
<defs>
<clipPath id="clip0_0_3388">
<rect width="22" height="22" fill="white" transform="translate(0 0.400024)"/>
</clipPath>
</defs>
</svg>
