<svg width="22" height="23" viewBox="0 0 22 23" fill="none" xmlns="http://www.w3.org/2000/svg">
<path d="M4.00675 18C4.06175 18 4.11675 17.9945 4.17175 17.9863L8.79725 17.175C8.85225 17.164 8.9045 17.1393 8.943 17.098L20.6002 5.44077C20.6257 5.41533 20.646 5.38511 20.6598 5.35185C20.6736 5.31858 20.6807 5.28292 20.6807 5.2469C20.6807 5.21088 20.6736 5.17522 20.6598 5.14195C20.646 5.10868 20.6257 5.07847 20.6002 5.05302L16.0298 0.479774C15.9775 0.427524 15.9087 0.400024 15.8345 0.400024C15.7602 0.400024 15.6915 0.427524 15.6392 0.479774L3.982 12.137C3.94075 12.1783 3.916 12.2278 3.905 12.2828L3.09375 16.9083C3.067 17.0556 3.07656 17.2072 3.1216 17.35C3.16664 17.4928 3.24581 17.6225 3.35225 17.7278C3.53375 17.9038 3.762 18 4.00675 18ZM5.86025 13.204L15.8345 3.23252L17.8502 5.24827L7.876 15.2198L5.43125 15.6515L5.86025 13.204ZM21.12 20.31H0.88C0.39325 20.31 0 20.7033 0 21.19V22.18C0 22.301 0.099 22.4 0.22 22.4H21.78C21.901 22.4 22 22.301 22 22.18V21.19C22 20.7033 21.6068 20.31 21.12 20.31Z" fill="#4578E6"/>
</svg>
