<svg width="25" height="34" viewBox="0 0 25 34" fill="none" xmlns="http://www.w3.org/2000/svg">
<path d="M17.0732 31.2679H7.92683C7.75915 31.2679 7.62195 31.4045 7.62195 31.5714V32.7857C7.62195 33.4574 8.16692 34 8.84146 34H16.1585C16.8331 34 17.378 33.4574 17.378 32.7857V31.5714C17.378 31.4045 17.2409 31.2679 17.0732 31.2679ZM12.5 0C5.59832 0 0 5.57433 0 12.4464C0 17.0531 2.51524 21.0754 6.25 23.227V27.625C6.25 28.2967 6.79497 28.8393 7.46951 28.8393H17.5305C18.205 28.8393 18.75 28.2967 18.75 27.625V23.227C22.4848 21.0754 25 17.0531 25 12.4464C25 5.57433 19.4017 0 12.5 0ZM17.3742 20.8629L16.0061 21.6522V26.1071H8.9939V21.6522L7.62576 20.8629C4.62652 19.1364 2.7439 15.9565 2.7439 12.4464C2.7439 7.0808 7.11128 2.73214 12.5 2.73214C17.8887 2.73214 22.2561 7.0808 22.2561 12.4464C22.2561 15.9565 20.3735 19.1364 17.3742 20.8629Z" fill="#4c84ff" fill-opacity="0.85"/>
</svg>
