<?xml version="1.0" encoding="UTF-8" standalone="no"?>
<!-- Generator: Adobe Illustrator 19.0.0, SVG Export Plug-In . SVG Version: 6.00 Build 0)  -->

<svg
   version="1.1"
   id="Layer_1"
   x="0px"
   y="0px"
   viewBox="0 0 300 750"
   xml:space="preserve"
   sodipodi:docname="info-active.svg"
   inkscape:version="1.2.1 (9c6d41e410, 2022-07-14)"
   width="300"
   height="750"
   xmlns:inkscape="http://www.inkscape.org/namespaces/inkscape"
   xmlns:sodipodi="http://sodipodi.sourceforge.net/DTD/sodipodi-0.dtd"
   xmlns="http://www.w3.org/2000/svg"
   xmlns:svg="http://www.w3.org/2000/svg"><defs
   id="defs1328" /><sodipodi:namedview
   id="namedview1326"
   pagecolor="#ffffff"
   bordercolor="#666666"
   borderopacity="1.0"
   inkscape:showpageshadow="2"
   inkscape:pageopacity="0.0"
   inkscape:pagecheckerboard="0"
   inkscape:deskcolor="#d1d1d1"
   showgrid="false"
   inkscape:zoom="1.1009789"
   inkscape:cx="-184.38137"
   inkscape:cy="346.96395"
   inkscape:window-width="2560"
   inkscape:window-height="939"
   inkscape:window-x="0"
   inkscape:window-y="1112"
   inkscape:window-maximized="1"
   inkscape:current-layer="Layer_1" />
<g
   id="g1287"
   style="fill:#4fda9d;fill-opacity:1"
   transform="matrix(0.9765625,0,0,0.9765625,-100,125)">
	<g
   id="g1285"
   style="fill:#4fda9d;fill-opacity:1">
		<path
   d="m 256,0 c -42.419,0 -76.8,34.381 -76.8,76.8 0,42.419 34.381,76.8 76.8,76.8 42.419,0 76.8,-34.381 76.8,-76.8 C 332.8,34.381 298.419,0 256,0 Z m 0,128 c -28.228,0 -51.2,-22.972 -51.2,-51.2 0,-28.228 22.972,-51.2 51.2,-51.2 28.228,0 51.2,22.972 51.2,51.2 0,28.228 -22.972,51.2 -51.2,51.2 z"
   id="path1283"
   style="fill:#4fda9d;fill-opacity:1" />
	</g>
</g>
<g
   id="g1293"
   style="fill:#4fda9d;fill-opacity:1"
   transform="matrix(0.9765625,0,0,0.9765625,-100,125)">
	<g
   id="g1291"
   style="fill:#4fda9d;fill-opacity:1">
		<path
   d="m 358.4,230.4 v -25.6 c 0,-14.14 -11.46,-25.6 -25.6,-25.6 H 179.2 c -14.14,0 -25.6,11.46 -25.6,25.6 v 25.6 c 0,14.14 11.46,25.6 25.6,25.6 v 179.2 c -14.14,0 -25.6,11.46 -25.6,25.6 v 25.6 c 0,14.14 11.46,25.6 25.6,25.6 h 153.6 c 14.14,0 25.6,-11.46 25.6,-25.6 v -25.6 c 0,-14.14 -11.46,-25.6 -25.6,-25.6 V 256 c 14.14,0 25.6,-11.46 25.6,-25.6 z m -25.6,230.4 v 25.6 H 179.2 v -25.6 h 25.6 V 230.4 h -25.6 v -25.6 h 153.6 v 25.6 h -25.6 v 230.4 z"
   id="path1289"
   style="fill:#4fda9d;fill-opacity:1" />
	</g>
</g>
<g
   id="g1295"
   transform="matrix(0.9765625,0,0,0.9765625,-100,125)"
   style="fill:#4fda9d;fill-opacity:1">
</g>
<g
   id="g1297"
   transform="matrix(0.9765625,0,0,0.9765625,-100,125)"
   style="fill:#4fda9d;fill-opacity:1">
</g>
<g
   id="g1299"
   transform="matrix(0.9765625,0,0,0.9765625,-100,125)"
   style="fill:#4fda9d;fill-opacity:1">
</g>
<g
   id="g1301"
   transform="matrix(0.9765625,0,0,0.9765625,-100,125)"
   style="fill:#4fda9d;fill-opacity:1">
</g>
<g
   id="g1303"
   transform="matrix(0.9765625,0,0,0.9765625,-100,125)"
   style="fill:#4fda9d;fill-opacity:1">
</g>
<g
   id="g1305"
   transform="matrix(0.9765625,0,0,0.9765625,-100,125)"
   style="fill:#4fda9d;fill-opacity:1">
</g>
<g
   id="g1307"
   transform="matrix(0.9765625,0,0,0.9765625,-100,125)"
   style="fill:#4fda9d;fill-opacity:1">
</g>
<g
   id="g1309"
   transform="matrix(0.9765625,0,0,0.9765625,-100,125)"
   style="fill:#4fda9d;fill-opacity:1">
</g>
<g
   id="g1311"
   transform="matrix(0.9765625,0,0,0.9765625,-100,125)"
   style="fill:#4fda9d;fill-opacity:1">
</g>
<g
   id="g1313"
   transform="matrix(0.9765625,0,0,0.9765625,-100,125)"
   style="fill:#4fda9d;fill-opacity:1">
</g>
<g
   id="g1315"
   transform="matrix(0.9765625,0,0,0.9765625,-100,125)"
   style="fill:#4fda9d;fill-opacity:1">
</g>
<g
   id="g1317"
   transform="matrix(0.9765625,0,0,0.9765625,-100,125)"
   style="fill:#4fda9d;fill-opacity:1">
</g>
<g
   id="g1319"
   transform="matrix(0.9765625,0,0,0.9765625,-100,125)"
   style="fill:#4fda9d;fill-opacity:1">
</g>
<g
   id="g1321"
   transform="matrix(0.9765625,0,0,0.9765625,-100,125)"
   style="fill:#4fda9d;fill-opacity:1">
</g>
<g
   id="g1323"
   transform="matrix(0.9765625,0,0,0.9765625,-100,125)"
   style="fill:#4fda9d;fill-opacity:1">
</g>
</svg>
