<svg width="22" height="17" viewBox="0 0 22 17" fill="none" xmlns="http://www.w3.org/2000/svg">
<path d="M21.8543 7.84907C19.4624 2.81048 15.8468 0.27478 11 0.27478C6.15063 0.27478 2.53758 2.81048 0.145696 7.85159C0.0497568 8.05475 0 8.27662 0 8.50129C0 8.72595 0.0497568 8.94783 0.145696 9.15098C2.53758 14.1896 6.15315 16.7253 11 16.7253C15.8494 16.7253 19.4624 14.1896 21.8543 9.14846C22.0486 8.73972 22.0486 8.26538 21.8543 7.84907ZM11 14.9087C6.93026 14.9087 3.9505 12.8448 1.84878 8.50003C3.9505 4.15528 6.93026 2.0914 11 2.0914C15.0697 2.0914 18.0495 4.15528 20.1512 8.50003C18.052 12.8448 15.0722 14.9087 11 14.9087ZM10.8991 4.0594C8.44664 4.0594 6.45845 6.04759 6.45845 8.50003C6.45845 10.9525 8.44664 12.9407 10.8991 12.9407C13.3515 12.9407 15.3397 10.9525 15.3397 8.50003C15.3397 6.04759 13.3515 4.0594 10.8991 4.0594ZM10.8991 11.3259C9.33728 11.3259 8.07322 10.0618 8.07322 8.50003C8.07322 6.93824 9.33728 5.67418 10.8991 5.67418C12.4609 5.67418 13.7249 6.93824 13.7249 8.50003C13.7249 10.0618 12.4609 11.3259 10.8991 11.3259Z" fill="#4578E6"/>
</svg>
